<?xml version="1.0" encoding="UTF-8"?>
<svg width="749px" height="670px" viewBox="0 0 749 670" version="1.1" xmlns="http://www.w3.org/2000/svg" xmlns:xlink="http://www.w3.org/1999/xlink">
    <!-- Generator: Sketch 52.4 (67378) - http://www.bohemiancoding.com/sketch -->
    <title>Group 9</title>
    <desc>Created with Sketch.</desc>
    <g id="Page-1" stroke="none" stroke-width="1" fill="none" fill-rule="evenodd">
        <g id="Header#2" transform="translate(-45.000000, -1478.000000)">
            <g id="Group-9" transform="translate(46.000000, 1427.000000)">
                <polygon id="Polygon" stroke="#979797" fill="#59C3C3" fill-rule="nonzero" transform="translate(373.500000, 386.000000) rotate(90.000000) translate(-373.500000, -386.000000) " points="373.5 12.5 707.785806 199.25 707.785806 572.75 373.5 759.5 39.2141941 572.75 39.2141941 199.25"></polygon>
                <g id="code" transform="translate(117.000000, 193.000000)" fill="#F9F9F9">
                    <path d="M319.235138,5.40254331 L301.88389,0.645796489 C299.650551,-0.0989763966 297.450531,0.135235077 295.311269,1.34647098 C293.165147,2.55868685 291.71578,4.3784806 290.971007,6.80291233 L186.610686,368.006002 C185.865913,370.431414 186.099145,372.718651 187.311361,374.860853 C188.523577,377.006975 190.33945,378.452422 192.767802,379.197195 L210.114151,383.955902 C212.352389,384.706554 214.544569,384.471363 216.689711,383.258167 C218.835833,382.040071 220.28226,380.226157 221.026053,377.805646 L325.389314,16.5966758 C326.133107,14.172244 325.901835,11.8850073 324.687659,9.73790548 C323.474464,7.59178361 321.66055,6.14633623 319.235138,5.40254331 Z" id="Path"></path>
                    <path d="M162.837732,75.9129363 C162.837732,73.4885046 161.903826,71.3414027 160.038954,69.4775106 L146.048003,55.4875399 C144.183131,53.6226678 142.037009,52.6877818 139.612577,52.6877818 C137.188145,52.6877818 135.041044,53.6236478 133.177152,55.4875399 L2.79877811,185.865913 C0.930966107,187.730785 0,189.876907 0,192.301339 C0,194.725771 0.933906,196.871893 2.79877811,198.735785 L133.176172,329.114158 C135.040064,330.98197 137.183246,331.910976 139.611597,331.910976 C142.039949,331.910976 144.183131,330.97903 146.047023,329.114158 L160.037974,315.132027 C161.902846,313.268135 162.836752,311.121033 162.836752,308.693662 C162.836752,306.27217 161.902846,304.126048 160.037974,302.262156 L50.0830367,192.301339 L160.038954,82.348362 C161.906766,80.4844699 162.837732,78.337368 162.837732,75.9129363 Z" id="Path"></path>
                    <path d="M509.203182,185.862973 L378.821869,55.4846 C376.957976,53.6207079 374.810875,52.6848419 372.390363,52.6848419 C369.962011,52.6848419 367.822749,53.6207079 365.951997,55.4846 L351.966926,69.4735907 C350.103034,71.3384628 349.173048,73.4816448 349.173048,75.9090164 C349.173048,78.3363881 350.102054,80.48055 351.966926,82.3444421 L461.924803,192.300359 L351.966926,302.262156 C350.103034,304.126048 349.173048,306.27315 349.173048,308.693662 C349.173048,311.122013 350.102054,313.268135 351.966926,315.132027 L365.951997,329.114158 C367.822749,330.98197 369.962991,331.910976 372.390363,331.910976 C374.811855,331.910976 376.957976,330.97903 378.821869,329.114158 L509.203182,198.736765 C511.068054,196.872873 512,194.722831 512,192.298399 C512,189.872987 511.068054,187.726866 509.203182,185.862973 Z" id="Path"></path>
                </g>
            </g>
        </g>
    </g>
</svg>