<?xml version="1.0" encoding="UTF-8"?>
<svg width="254px" height="352px" viewBox="0 0 254 352" version="1.1" xmlns="http://www.w3.org/2000/svg" xmlns:xlink="http://www.w3.org/1999/xlink">
    <!-- Generator: Sketch 52.4 (67378) - http://www.bohemiancoding.com/sketch -->
    <title>Group 10</title>
    <desc>Created with Sketch.</desc>
    <g id="Page-1" stroke="none" stroke-width="1" fill="none" fill-rule="evenodd">
        <g id="Header#2" transform="translate(-843.000000, -213.000000)">
            <g id="Group-10" transform="translate(843.000000, 213.000000)">
                <g id="boy_2">
                    <g id="boy">
                        <path d="M155.981102,307.838433 L152.58738,310.519344 L142.410292,318.558856 C140.538035,320.04109 137.499185,320.04109 135.622848,318.558856 C133.75059,317.079843 133.75059,314.679268 135.622848,313.200256 L144.853609,305.908306 C145.379799,305.492636 145.379799,304.822408 144.853609,304.40996 L135.622848,297.118011 C133.75059,295.638999 133.75059,293.238423 135.622848,291.756189 C137.499185,290.277176 140.538035,290.277176 142.410292,291.756189 L152.58738,299.798922 L155.981102,302.476611 C157.85336,303.958845 157.85336,306.359421 155.981102,307.838433 M134.472572,256.981678 C134.448098,256.994567 134.431782,257.020345 134.407308,257.036456 C132.955187,257.806573 133.199926,257.668017 134.472572,256.981678 M113.816551,294.975215 L123.047312,302.267165 C124.91957,303.749399 124.91957,306.149975 123.047312,307.628987 C121.170976,309.107999 118.136205,309.107999 116.259868,307.628987 L106.08278,299.589476 L102.689058,296.908565 C100.8168,295.42633 100.8168,293.028977 102.689058,291.546742 L106.08278,288.865831 L116.259868,280.82632 C118.136205,279.347308 121.170976,279.347308 123.047312,280.82632 C124.91957,282.305332 124.91957,284.705908 123.047312,286.188142 L113.816551,293.480092 C113.29444,293.89254 113.29444,294.562767 113.816551,294.975215 M162.483017,212.695088 C166.692538,217.18368 169.139934,222.848394 169.139934,229.724673 C169.139934,240.467651 159.599169,247.749934 152.318167,251.745523 C149.95643,253.040867 147.027713,252.638086 145.204403,251.220296 C144.355972,250.559735 143.723728,249.702617 143.536095,248.658608 C142.879377,244.956244 141.533309,240.648097 138.857489,238.131521 C138.714725,237.996187 138.576039,237.851185 138.421037,237.725518 L138.433274,237.780296 L138.331299,237.654628 C132.392286,238.157299 127.077358,237.883408 117.822122,238.028409 C117.866991,237.880186 117.895544,237.780296 117.895544,237.780296 L117.675279,237.644961 C117.450934,238.034854 117.169483,238.405412 116.847243,238.756637 C114.807746,240.983211 113.57997,244.408462 112.837593,247.656489 C112.401141,249.560838 110.883755,250.991517 108.978865,251.803523 C106.572259,252.831421 103.53341,252.853977 101.10233,251.349186 C94.3067273,247.147374 86.7605902,240.329095 86.7605902,230.771904 C86.7605902,223.505733 89.4935155,217.596128 94.1558046,212.997979 C52.235993,222.252278 22.0840763,247.669378 22.0840763,277.649183 L22.0840763,294.227654 L55.9274817,294.227654 L68.5111753,294.227654 L68.5111753,309.688004 L68.1644609,309.688004 L119.563852,348.451659 C124.899175,352.473026 133.285585,352.489137 138.641303,348.487104 L190.595437,309.688004 L190.595437,294.227654 L235.896734,294.227654 L235.896734,277.649183 C235.896734,247.350375 205.104416,221.698051 162.483017,212.695088" id="Fill-112" fill="#AEE1F9"></path>
                        <path d="M68.5099516,294.227654 L55.926258,294.227654 L22.0869316,294.227654 L22.0869316,301.596937 C22.0869316,306.066196 26.6717198,309.688004 32.3292832,309.688004 L68.1632372,309.688004 L68.5099516,309.688004 L68.5099516,294.227654 Z" id="Fill-114" fill="#A4633D"></path>
                        <path d="M123.046905,286.186853 C124.919162,284.707841 124.919162,282.307266 123.046905,280.825031 C121.174647,279.346019 118.135797,279.346019 116.25946,280.825031 L106.082372,288.867765 L102.68865,291.548676 C100.816392,293.027688 100.816392,295.428264 102.68865,296.907276 L106.082372,299.588187 L116.25946,307.627698 C118.135797,309.109933 121.174647,309.109933 123.046905,307.627698 C124.919162,306.148686 124.919162,303.74811 123.046905,302.269098 L113.816143,294.977149 C113.294032,294.561479 113.294032,293.891251 113.816143,293.478803 L123.046905,286.186853 Z" id="Fill-116" fill="#33393D"></path>
                        <rect id="Rectangle" fill="#AEE1F9" fill-rule="nonzero" x="128.580913" y="286.321767" width="34.780083" height="33.9337539"></rect>
                        <path d="M152.219348,288.90513 L142.04226,280.865619 C140.165923,279.383385 137.127074,279.383385 135.254816,280.865619 C133.382558,282.344631 133.382558,284.745207 135.254816,286.224219 L144.485577,293.516169 C145.007688,293.928616 145.007688,294.602067 144.485577,295.014514 L135.254816,302.306464 C133.382558,303.785476 133.382558,306.186052 135.254816,307.665064 C137.127074,309.147298 140.165923,309.147298 142.04226,307.665064 L152.219348,299.625553 L155.61307,296.944642 C157.485328,295.465629 157.485328,293.065054 155.61307,291.586041 L152.219348,288.90513 Z" id="Fill-118" fill="#33393D"></path>
                        <path d="M138.345168,237.652373 C138.373721,237.674928 138.394116,237.703929 138.422669,237.726484 L138.410432,237.645928 C138.390037,237.645928 138.365563,237.64915 138.345168,237.652373" id="Fill-120" fill="#AEE1F9"></path>
                        <path d="M128.992445,212.280706 C130.652595,212.280706 132.300508,212.238817 133.940263,212.180817 L133.442626,209.358126 C131.957873,209.319459 130.493514,209.213125 128.992445,209.213125 C126.86321,209.213125 124.782924,209.338793 122.682243,209.416127 L122.229474,212.090594 C124.468841,212.203372 126.716367,212.280706 128.992445,212.280706" id="Fill-122" fill="#AEE1F9"></path>
                        <path d="M134.405269,257.035489 C134.429743,257.0226 134.446059,256.996822 134.474611,256.980711 C133.197887,257.670272 132.953147,257.805607 134.405269,257.035489" id="Fill-124" fill="#AEE1F9"></path>
                        <path d="M138.290917,237.602105 L138.331707,237.653661 L138.433682,237.779329 L138.421445,237.724551 C138.396971,237.701995 138.372497,237.672995 138.343944,237.653661 C138.327628,237.63755 138.311312,237.618217 138.290917,237.602105" id="Fill-126" fill="#D6EEF8"></path>
                        <path d="M162.482201,212.696054 C160.104149,210.163366 157.1428,208.023793 153.749077,206.238667 L153.749077,209.212803 L153.749077,210.769149 L153.749077,219.488555 C153.749077,227.41851 147.761116,234.542902 138.444695,237.745818 C138.58746,237.865041 138.722067,238.000375 138.860753,238.129265 C141.532493,240.645842 142.878561,244.957211 143.539358,248.659575 C143.722912,249.703584 144.355156,250.560702 145.203587,251.218041 C147.026897,252.63583 149.955614,253.038611 152.317351,251.74649 C159.598353,247.750901 169.139118,240.468618 169.139118,229.722418 C169.139118,222.846138 166.695801,217.184647 162.482201,212.696054" id="Fill-128" fill="#D6EEF8"></path>
                        <path d="M104.235812,219.488233 L104.235812,210.768827 L104.235812,209.212481 L104.235812,206.299568 C100.319979,208.09436 96.8854668,210.301601 94.1525414,212.998623 C89.4902523,217.596773 86.761406,223.506377 86.761406,230.772549 C86.761406,240.329739 94.3075431,247.148018 101.103146,251.349831 C103.534225,252.854621 106.573075,252.832065 108.975602,251.804168 C110.884571,250.988939 112.401956,249.561483 112.83433,247.657133 C113.576706,244.409106 114.808562,240.983856 116.848059,238.757282 C117.137667,238.438279 117.382407,238.099943 117.594514,237.75194 C109.416133,234.552247 104.235812,227.424632 104.235812,219.488233" id="Fill-130" fill="#D6EEF8"></path>
                        <path d="M140.444218,201.235159 C138.233404,201.460716 135.998115,201.615384 133.738353,201.70883 C132.163862,201.776497 130.589371,201.844164 128.990405,201.844164 C125.413128,201.844164 121.905194,201.63794 118.43805,201.312493 C117.438697,201.219048 116.443423,201.128825 115.452227,201.009602 C111.63429,200.545598 107.885695,199.914037 104.234996,199.085919 L104.234996,206.297312 L104.234996,209.213447 L104.234996,210.769794 L104.234996,219.489199 C104.234996,227.425599 109.415318,234.553213 117.597778,237.752907 C117.699753,237.794796 117.813964,237.823796 117.920018,237.862463 L123.875348,257.85974 C125.050098,261.810218 132.200573,261.729661 133.232558,257.756628 L138.433274,237.778685 L138.32722,237.778685 C138.363931,237.765796 138.404721,237.759351 138.445511,237.746462 C147.757852,234.543547 153.749893,227.419154 153.749893,219.489199 L153.749893,210.769794 L153.749893,209.213447 L153.749893,206.239312 L153.749893,199.085919 C149.438397,200.06226 144.992295,200.771155 140.444218,201.235159" id="Fill-132" fill="#A4633D"></path>
                        <path d="M235.898774,294.227654 L190.540371,294.227654 L190.540371,309.688004 L225.831819,309.688004 C231.391486,309.688004 235.898774,306.127419 235.898774,301.735494 L235.898774,294.227654 Z" id="Fill-134" fill="#A4633D"></path>
                        <polygon id="Fill-136" fill="#D6EEF8" points="22.0877474 294.228298 68.5107674 294.228298 68.5107674 286.971793 22.0877474 286.971793"></polygon>
                        <polygon id="Fill-138" fill="#D6EEF8" points="190.537924 294.228298 235.896326 294.228298 235.896326 286.971793 190.537924 286.971793"></polygon>
                        <path d="M200.526916,104.258153 C199.770606,104.755971 198.864652,105 197.958697,105 C196.789854,105 195.633144,104.596539 194.832345,103.812393 C190.460306,99.5370099 182.763738,95.1249703 161.959141,99.0131616 C159.79941,99.432891 157.607324,98.3331348 157.105814,96.5826353 C156.600259,94.8321358 157.955146,93.0783826 160.12701,92.6749218 C179.487742,89.0470278 192.494659,91.2823311 201.081005,99.6769197 C202.496558,101.066257 202.249848,103.112844 200.526916,104.258153 M175.502032,116 C171.356814,116 168,113.312026 168,110 C168,106.687974 171.356814,104 175.502032,104 C179.643186,104 183,106.687974 183,110 C183,113.312026 179.643186,116 175.502032,116 M151.468216,167.692625 C147.508039,173.347404 137.822603,175 126.499039,175 C115.179569,175 105.494133,173.347404 101.529862,167.692625 C99.6296325,164.980349 103.069703,162 108.19295,162 L144.809222,162 C149.93247,162 153.37254,164.980349 151.468216,167.692625 M97.8941863,96.5801379 C97.3926758,98.3311567 95.2086785,99.4279846 93.0408589,99.0113853 C72.2241287,95.1252951 64.5396937,99.5353891 60.1676545,103.812041 C59.3668555,104.596419 58.2101458,105 57.0413028,105 C56.1353483,105 55.2293939,104.755899 54.4730837,104.257933 C52.7501525,103.112284 52.5034417,101.06509 53.9189955,99.6753404 C62.5053406,91.2847704 75.5122581,89.0488039 94.87299,92.6712649 C97.0448541,93.0748454 98.3997413,94.829119 97.8941863,96.5801379 M79.502032,116 C75.3568139,116 72,113.312026 72,110 C72,106.687974 75.3568139,104 79.502032,104 C83.6431861,104 87,106.687974 87,110 C87,113.312026 83.6431861,116 79.502032,116 M113.280248,137.744337 C115.379962,132.524272 120.504552,131 126.497989,131 C132.491426,131 137.620038,132.524272 139.719752,137.744337 C140.725362,140.249191 138.903196,143 136.192071,143 L116.807929,143 C114.096804,143 112.274638,140.249191 113.280248,137.744337 M209.514656,47 L202.107047,47 L156.745142,47 C148.712028,47 126.827709,47 119.888666,47 C83.1816503,47 73.389532,47 52.2484492,47 C45.2259202,47 35.2900864,47 30.2195442,47 C18.6701384,47 24.5029031,79.5850585 24.2623621,75.2032751 C24.0218211,70.8214916 23.3682627,119.081311 23.3682627,119.081311 L23.3682627,123.876105 L23.3968015,123.876105 C23.3927245,124.089064 23.3682627,124.298796 23.3682627,124.514981 C23.3682627,150.179791 52,169.694002 86.1727246,188.77544 C91.7047524,191.864425 98.1309421,194.215486 104.459121,196.798275 C111.054959,199.490306 119.372664,198.934313 127.184131,198.934313 C136.438845,198.934313 146.616806,199.702458 153.945338,195.98516 C194.488612,175.42014 231,153.383771 231,124.514981 C231,124.298796 230.975538,124.089064 230.971461,123.876105 L231,123.876105 L231,119.074858 L230.02968,51.6145118 C230.02968,51.6145118 230.971461,47 219.743349,47 C213.157186,47 209.514656,47 209.514656,47 Z" id="Fill-139" fill="#A4633D"></path>
                        <path d="M104.235812,196.45463 L104.235812,206.134266 C112.100111,207.91617 120.400862,208.892511 128.991221,208.892511 C137.585659,208.892511 145.882331,207.91617 153.750709,206.134266 L153.750709,195.642624 C145.205218,197.530862 136.235513,198.584537 126.97212,198.584537 C119.160848,198.584537 111.557605,197.820864 104.235812,196.45463" id="Fill-140" fill="#66311A"></path>
                        <path d="M253.327495,100.944271 C253.327495,91.1776339 243.419621,83.2509014 231.113299,83.0640109 C231.700674,88.0520523 231.75778,93.0723163 230.840007,97.4674639 L230.840007,118.837419 C243.272777,118.763307 253.327495,110.785019 253.327495,100.944271" id="Fill-141" fill="#66311A"></path>
                        <path d="M23.2376155,83.6404713 C23.2498525,83.4439141 23.2702475,83.2473569 23.2865635,83.0507997 C23.2335365,83.0507997 23.1845886,83.0443552 23.1315617,83.0443552 C10.62129,83.0443552 0.476834288,91.0580884 0.476834288,100.943948 C0.476834288,110.823364 10.604974,118.830652 23.1070878,118.840319 L23.1070878,95.4242358 C22.8827431,91.3384241 22.9357701,87.4137248 23.2376155,83.6404713" id="Fill-142" fill="#66311A"></path>
                        <path d="M60.2281619,104.515819 C64.6375534,99.6670361 72.3876402,94.674449 93.3822175,99.0733828 C95.5726367,99.5453556 97.775293,98.3027398 98.2810881,96.3189792 C98.7909623,94.3352186 97.4244996,92.351458 95.2300013,91.8942343 C75.7038616,87.7902835 62.5898989,90.3197626 53.9301966,99.8255895 C52.4984701,101.400061 52.7472886,103.723052 54.4849397,105.01729 C55.2477114,105.585132 56.1614058,105.857992 57.0751003,105.857992 C58.2539293,105.857992 59.4205213,105.400768 60.2281619,104.515819 Z" id="Fill-143" fill="#231F20"></path>
                        <path d="M195.544926,104.850056 C196.370362,105.734961 197.562659,106.192161 198.767462,106.192161 C199.701289,106.192161 200.639284,105.919316 201.414694,105.351502 C203.190633,104.05733 203.444934,101.734456 201.985829,100.160063 C193.135319,90.6473411 179.728235,88.1143023 159.771857,92.2291077 C157.533174,92.6863083 156.136603,94.6699689 156.657711,96.6536296 C157.174651,98.6372902 159.434178,99.8835306 161.660355,99.4078945 C169.496293,97.7995586 175.527801,97.4456041 180.247208,97.8805742 C188.445946,98.6362213 192.684763,101.772842 195.544926,104.850056 Z" id="Fill-144" fill="#231F20"></path>
                        <path d="M79.619277,103.910673 C75.1867062,103.910673 71.5936703,106.799471 71.5936703,110.358945 C71.5936703,113.918418 75.1867062,116.807216 79.619277,116.807216 C84.0561978,116.807216 87.6492337,113.918418 87.6492337,110.358945 C87.6492337,106.799471 84.0561978,103.910673 79.619277,103.910673 Z" id="Fill-145" fill="#0E0F0E"></path>
                        <path d="M183.689941,110.358945 C183.689941,106.799471 180.096905,103.910673 175.659984,103.910673 C171.227413,103.910673 167.634378,106.799471 167.634378,110.358945 C167.634378,113.918418 171.227413,116.807216 175.659984,116.807216 C180.096905,116.807216 183.689941,113.918418 183.689941,110.358945" id="Fill-146" fill="#0E0F0E"></path>
                        <path d="M151.848267,167.638702 C153.740919,164.864346 150.314565,161.819321 145.215824,161.819321 L108.741468,161.819321 C103.642727,161.819321 100.212293,164.864346 102.109025,167.638702 C106.053412,173.416195 115.704309,175.104653 126.978646,175.104653 C138.252983,175.104653 147.90388,173.416195 151.848267,167.638702" id="Fill-147" fill="#FEFEFE"></path>
                        <path d="M117.145417,142.957564 L136.802085,142.957564 C139.551326,142.957564 141.39911,140.218652 140.379362,137.724632 C138.250127,132.530366 133.05349,131.012687 126.975791,131.012687 C120.898091,131.012687 115.697375,132.530366 113.56814,137.724632 C112.548392,140.218652 114.396176,142.957564 117.145417,142.957564" id="Fill-148" fill="#773F23"></path>
                        <path d="M22.2685693,77.9719809 C21.9667238,81.7452345 21.9136969,85.6699337 22.1380415,89.7557454 C22.3746231,94.1315595 54.8552951,74.9127581 52,57.5480583 C51.404467,53.9165837 58,58.295775 58,54.0886714 C58,45.8361172 54.9120022,51.8637958 63.2624495,54.0886714 C74.1302916,56.9842765 90.5957487,54.0886714 109.591653,54.0886714 L128.507888,54.0886714 L201.632611,54.0886714 L206.478184,54.0886714 C211.554242,54.0886714 207,52.1894583 207,57.5480583 C207,70.9328324 217.844049,95.0595673 229.868921,91.7986513 C230.786694,87.4035037 230.283593,82.3892574 230.146292,77.3951983 C229.868921,67.3063474 231.57394,53.721335 229.868921,50.3025289 C221.710935,33.920615 199.904638,21.7244026 181.471668,12.695661 C180.57429,12.2542129 179.685069,11.803098 178.767296,11.3842057 C178.216632,11.129648 177.665968,10.8750903 177.107146,10.6301994 C164.017657,4.87526271 149.402625,1.26634385 134.338903,0.286780159 C133.967715,0.264224417 133.600606,0.241668674 133.229417,0.22233518 C130.830969,0.0870007225 128.420285,0 126.005521,0 C124.639058,0 123.244042,0.0322224898 121.828632,0.0837784736 C103.697508,0.773339756 81.8789738,5.92893813 63.2624495,16.6719162 C45.6248835,26.8510008 22.6805476,40.1779859 22.1380415,61.2710644 C22.01854,65.9173794 22.01854,72.7992705 22.2685693,77.9719809 L18,73.5103541" id="Fill-149" fill="#0E0F0E"></path>
                        <path d="" id="Path-2" stroke="#979797" fill-rule="nonzero"></path>
                        <path d="M152.318366,185.555978 C148.515018,185.555978 111.61699,186.616887 104.679056,185.555978 C97.741121,184.495069 118.955915,189.524223 95.2990862,180.197707 C57.4588543,165.279497 31.438295,133.640342 25.3737883,128.492867 C21.6188844,125.305753 23.442964,138.233356 23.442964,148.346487 C23.442964,152.813988 31.1036922,173.381701 53,185.555978 C60.4322037,189.68826 77.7394955,196.735086 104.921875,206.696458" id="Path-3" fill="#000000" fill-rule="nonzero"></path>
                        <path d="M231.339178,185.555978 C224.342625,187.791211 188.933403,184.182041 179.621389,187.791211 C170.309374,191.400382 198.1757,190.257808 174.299086,180.197707 C137.230032,164.579144 110.438295,133.640342 104.373788,128.492867 C100.618884,125.305753 102.442964,138.233356 102.442964,148.346487 C102.442964,152.813988 110.103692,173.381701 132,185.555978 C139.432204,189.68826 156.739496,196.735086 183.921875,206.696458" id="Path-3" fill="#000000" fill-rule="nonzero" transform="translate(166.669589, 167.348229) scale(-1, 1) translate(-166.669589, -167.348229) "></path>
                    </g>
                </g>
                <path d="M105.62463,203.328294 L127.079281,195 L151.041342,204.444253 C142.298975,208.796272 134.311622,210.972281 127.079281,210.972281 C119.84694,210.972281 112.48718,208.962851 105,204.94399 L105.62463,203.328294 Z" id="Path-4" fill="#000000" fill-rule="nonzero"></path>
            </g>
        </g>
    </g>
</svg>